<svg xmlns="http://www.w3.org/2000/svg" viewBox="-3 -3 90 102">
  <g transform="translate(3,3)">
    <polygon
      stroke="#64ffda"
      stroke-width="5"
      stroke-linecap="round"
      stroke-linejoin="round"
      fill="#0a192f"
      points="39 0 0 22 0 67 39 90 78 68 78 23"
    />
    <g transform="translate(18,18) scale(5.5)">
      <path
        fill="#64ffda"
        d="M5.82955 2.45455C5.77841 2.02273 5.57102 1.6875 5.20739 1.44886C4.84375 1.21023 4.39773 1.09091 3.86932 1.09091C3.48295 1.09091 3.14489 1.15341 2.85511 1.27841C2.56818 1.40341 2.34375 1.57528 2.18182 1.79403C2.02273 2.01278 1.94318 2.26136 1.94318 2.53977C1.94318 2.77273 1.99858 2.97301 2.10937 3.14063C2.22301 3.3054 2.3679 3.44318 2.54403 3.55398C2.72017 3.66193 2.90483 3.75142 3.09801 3.82244C3.29119 3.89063 3.46875 3.94602 3.63068 3.98864L4.51705 4.22727C4.74432 4.28693 4.99716 4.36932 5.27557 4.47443C5.55682 4.57955 5.82528 4.72301 6.08097 4.90483C6.33949 5.08381 6.55256 5.31392 6.72017 5.59517C6.88778 5.87642 6.97159 6.22159 6.97159 6.63068C6.97159 7.10227 6.84801 7.52841 6.60085 7.90909C6.35653 8.28977 5.99858 8.59233 5.52699 8.81676C5.05824 9.04119 4.48864 9.15341 3.81818 9.15341C3.19318 9.15341 2.65199 9.05256 2.1946 8.85085C1.74006 8.64915 1.3821 8.3679 1.12074 8.0071C0.862216 7.64631 0.715909 7.22727 0.681818 6.75H1.77273C1.80114 7.07955 1.91193 7.35227 2.10511 7.56818C2.30114 7.78125 2.5483 7.94034 2.84659 8.04545C3.14773 8.14773 3.47159 8.19886 3.81818 8.19886C4.22159 8.19886 4.58381 8.13352 4.90483 8.00284C5.22585 7.86932 5.48011 7.68466 5.66761 7.44886C5.85511 7.21023 5.94886 6.93182 5.94886 6.61364C5.94886 6.32386 5.8679 6.08807 5.70597 5.90625C5.54403 5.72443 5.33097 5.5767 5.06676 5.46307C4.80256 5.34943 4.51705 5.25 4.21023 5.16477L3.13636 4.85795C2.45455 4.66193 1.91477 4.3821 1.51705 4.01847C1.11932 3.65483 0.920454 3.17898 0.920454 2.59091C0.920454 2.10227 1.05256 1.67614 1.31676 1.3125C1.58381 0.946023 1.94176 0.661932 2.39062 0.460227C2.84233 0.255682 3.34659 0.153409 3.90341 0.153409C4.46591 0.153409 4.96591 0.254261 5.40341 0.455966C5.84091 0.654829 6.1875 0.927556 6.44318 1.27415C6.7017 1.62074 6.83807 2.0142 6.85227 2.45455H5.82955Z"
      />
    </g>
  </g>
</svg>
